<?xml version="1.0" encoding="utf-8"?>
<!-- Generator: Adobe Illustrator 25.3.1, SVG Export Plug-In . SVG Version: 6.00 Build 0)  -->
<svg version="1.1" id="Layer_1" xmlns="http://www.w3.org/2000/svg" xmlns:xlink="http://www.w3.org/1999/xlink" x="0px" y="0px"
	 viewBox="0 0 272.3 71" style="enable-background:new 0 0 272.3 71;" xml:space="preserve">
<style type="text/css">
	.st0{enable-background:new    ;}
	.st1{fill:#FFFFFF;}
</style>
<g class="st0">
	<path class="st1" d="M107.1,28.4h-7.2v32.4h-8.1V28.4h-4.6v-6.6h4.6V19c0-4.5,1.2-7.8,3.6-9.8c2.4-2.1,6.1-3.1,11.2-3.1v6.7
		c-2.5,0-4.2,0.5-5.2,1.4s-1.5,2.5-1.5,4.8v2.8h7.2V28.4z"/>
	<path class="st1" d="M126.4,22.9c2-1.1,4.3-1.7,7-1.7v8.4h-2.1c-3.2,0-5.6,0.8-7.2,2.4s-2.4,4.4-2.4,8.4v20.5h-8.1v-39h8.1v5.7
		C122.8,25.5,124.4,24,126.4,22.9z"/>
	<path class="st1" d="M175.6,44.4h-29.8c0.2,3.1,1.4,5.6,3.5,7.5s4.6,2.8,7.7,2.8c4.3,0,7.4-1.8,9.2-5.5h8.7
		c-1.2,3.6-3.3,6.5-6.4,8.8c-3.1,2.3-6.9,3.4-11.5,3.4c-3.7,0-7.1-0.8-10-2.5c-3-1.7-5.3-4-6.9-7.1c-1.7-3-2.5-6.6-2.5-10.6
		s0.8-7.5,2.4-10.6c1.6-3,3.9-5.4,6.9-7c3-1.7,6.3-2.5,10.2-2.5c3.7,0,7,0.8,9.8,2.4c2.9,1.6,5.1,3.9,6.7,6.8
		c1.6,2.9,2.4,6.2,2.4,10C175.9,41.9,175.8,43.2,175.6,44.4z M167.5,37.9c0-3-1.1-5.4-3.2-7.2c-2.1-1.8-4.7-2.7-7.7-2.7
		c-2.8,0-5.2,0.9-7.2,2.7c-2,1.8-3.2,4.2-3.5,7.2H167.5z"/>
	<path class="st1" d="M183,30.8c1.6-3,3.8-5.4,6.7-7c2.8-1.7,5.9-2.5,9.4-2.5c2.6,0,5.1,0.6,7.5,1.7c2.5,1.1,4.5,2.6,5.9,4.4V8.5
		h8.1v52.4h-8.1V55c-1.3,1.9-3.2,3.4-5.5,4.7c-2.3,1.2-5,1.8-8,1.8c-3.4,0-6.5-0.9-9.3-2.6c-2.8-1.7-5-4.1-6.7-7.2
		c-1.6-3.1-2.4-6.6-2.4-10.5C180.5,37.3,181.3,33.8,183,30.8z M210.8,34.3c-1.1-2-2.6-3.5-4.4-4.5c-1.8-1-3.7-1.6-5.8-1.6
		s-4,0.5-5.8,1.5s-3.2,2.5-4.4,4.5c-1.1,2-1.7,4.3-1.7,7s0.6,5.1,1.7,7.1c1.1,2,2.6,3.6,4.4,4.6c1.8,1.1,3.7,1.6,5.8,1.6
		s4-0.5,5.8-1.6c1.8-1,3.2-2.6,4.4-4.6c1.1-2,1.7-4.4,1.7-7S211.9,36.3,210.8,34.3z"/>
	<path class="st1" d="M230.4,30.8c1.6-3,3.8-5.4,6.7-7c2.8-1.7,5.9-2.5,9.4-2.5c2.6,0,5.1,0.6,7.5,1.7c2.5,1.1,4.5,2.6,5.9,4.4V8.5
		h8.1v52.4h-8.1V55c-1.3,1.9-3.2,3.4-5.5,4.7c-2.3,1.2-5,1.8-8,1.8c-3.4,0-6.5-0.9-9.3-2.6c-2.8-1.7-5-4.1-6.7-7.2
		c-1.6-3.1-2.4-6.6-2.4-10.5C227.9,37.3,228.7,33.8,230.4,30.8z M258.2,34.3c-1.1-2-2.6-3.5-4.4-4.5c-1.8-1-3.7-1.6-5.8-1.6
		s-4,0.5-5.8,1.5s-3.2,2.5-4.4,4.5c-1.1,2-1.7,4.3-1.7,7s0.6,5.1,1.7,7.1c1.1,2,2.6,3.6,4.4,4.6c1.8,1.1,3.7,1.6,5.8,1.6
		s4-0.5,5.8-1.6c1.8-1,3.2-2.6,4.4-4.6c1.1-2,1.7-4.4,1.7-7S259.3,36.3,258.2,34.3z"/>
</g>
<g>
	<path class="st1" d="M63.1,14.5c0,0.5,0,0.9-0.1,1.4l0.1-1.1c-0.1,0.9-0.4,1.9-0.8,2.8l0.4-1c-0.3,0.8-0.8,1.6-1.3,2.3l0.6-0.8
		c-0.6,0.7-1.3,1.4-2,2l0.8-0.6c-0.7,0.5-1.5,1-2.3,1.3l1-0.4c-0.9,0.4-1.8,0.6-2.7,0.8l1.1-0.1c-0.9,0.1-1.7,0.1-2.6,0.2
		c-3.4,0.3-6.6,1.8-9,4.2c-1.6,1.6-2.8,3.6-3.5,5.7c-0.4,1.1-0.6,2.2-0.7,3.4c-0.1,0.6,0,1.5-0.1,2.4l0.1-1.1
		c-0.1,0.9-0.4,1.9-0.8,2.7l0.4-1c-0.4,0.8-0.8,1.6-1.3,2.3l0.6-0.8c-0.6,0.7-1.2,1.4-2,2l0.8-0.6c-0.7,0.5-1.5,1-2.3,1.3l1-0.4
		c-0.9,0.4-1.8,0.6-2.7,0.8l1-0.1c-0.9,0.1-1.7,0.1-2.6,0.2c-1.1,0.1-2.3,0.3-3.4,0.7c-4.3,1.4-7.7,4.8-9.2,9.2
		c-0.4,1.1-0.6,2.2-0.7,3.4c-0.1,0.9,0,1.7-0.2,2.6l0.1-1.1C20.7,58,20.4,59,20,59.8l0.4-1c-0.4,0.8-0.8,1.6-1.3,2.3l0.6-0.8
		c-0.6,0.7-1.3,1.4-2,2l0.8-0.6c-0.7,0.5-1.5,1-2.3,1.3l1-0.4c-0.9,0.4-1.8,0.6-2.8,0.8l1.1-0.2c-0.9,0.1-1.8,0.1-2.8,0l1.1,0.1
		c-0.9-0.1-1.9-0.4-2.7-0.8l1,0.4c-0.8-0.3-1.6-0.8-2.3-1.3l0.8,0.6c-0.7-0.6-1.4-1.3-2-2L9.2,61c-0.5-0.7-1-1.4-1.3-2.2l0.4,1
		c-0.4-0.9-0.6-1.8-0.7-2.7l0.1,1.1c0.3-2,0.2-3.7,0.3-5.4V19.3c0-1.6,0-3.2,0-4.8c0-0.5,0-0.9,0.1-1.4L8,14.2
		c0.1-0.9,0.4-1.9,0.8-2.7l-0.4,1c0.3-0.8,0.8-1.6,1.3-2.3L9,11c0.6-0.7,1.3-1.4,2-2l-0.8,0.6c0.7-0.5,1.4-1,2.2-1.3l-1,0.4
		c0.9-0.4,1.8-0.6,2.8-0.7l-1.1,0.1C14.8,8,16.6,7.9,18.3,8h38.2c0.5,0,0.9,0,1.4,0.1l-1-0.1c0.9,0.1,1.9,0.4,2.7,0.8l-1-0.4
		c0.8,0.3,1.6,0.8,2.3,1.3L60.1,9c0.7,0.6,1.4,1.3,2,2l-0.6-0.8c0.5,0.7,1,1.5,1.3,2.3l-0.4-1c0.4,0.9,0.6,1.8,0.8,2.7L63,13.1
		C63.1,13.6,63.1,14,63.1,14.5c0,2.2,1.8,4,4,4s4-1.8,4-4c0-5.2-2.8-10-7.3-12.6c-2.4-1.3-5.1-2-7.8-1.9H15.6
		c-2-0.1-3.9,0.2-5.8,0.8C5,2.5,1.4,6.6,0.3,11.6C0.1,13,0,14.5,0,16v40.2c0,3.5,1.2,6.9,3.4,9.6c3.3,3.9,8.5,5.8,13.6,4.9
		c2.5-0.4,4.8-1.5,6.8-3.1c1.9-1.6,3.4-3.7,4.3-6.1c0.4-1,0.6-2.1,0.8-3.1c0.1-1.1,0.1-2.2,0.2-3.3L29,56.2c0.1-0.9,0.4-1.9,0.8-2.8
		l-0.4,1c0.3-0.8,0.8-1.6,1.3-2.3L30,53c0.6-0.7,1.3-1.4,2-2l-0.8,0.6c0.7-0.5,1.5-1,2.3-1.3l-1,0.4c0.9-0.4,1.8-0.6,2.8-0.7
		l-1.1,0.2c0.9-0.1,1.7-0.1,2.6-0.2c7.1-0.6,12.7-6.2,13.3-13.2c0.1-0.9,0-1.7,0.2-2.6l-0.3,1c0.1-0.9,0.4-1.9,0.8-2.7l-0.4,1
		c0.4-0.8,0.8-1.6,1.3-2.3L51,32c0.6-0.7,1.3-1.4,2-2l-0.8,0.6c0.7-0.5,1.5-1,2.3-1.3l-1,0.4c0.9-0.4,1.8-0.6,2.8-0.7l-1.1,0.1
		C56,29,56.8,29,57.6,29c3.3-0.2,6.3-1.5,8.7-3.8c3-2.7,4.7-6.6,4.7-10.7c0-2.2-1.8-4-4-4S63.1,12.3,63.1,14.5L63.1,14.5z"/>
</g>
</svg>
