<svg xmlns="http://www.w3.org/2000/svg" viewBox="0 0 272.34 102.11"><defs><style>.cls-1{font-size:70.85px;font-family:Poppins-Medium, Poppins;font-weight:500;letter-spacing:-0.01em;}.cls-1,.cls-2{fill:#fff;}</style></defs><g id="Layer_2" data-name="Layer 2"><g id="Layer_1-2" data-name="Layer 1"><text class="cls-1" transform="translate(85.38 60.88)">fredd</text><path class="cls-2" d="M63.07,14.51A10.81,10.81,0,0,1,63,15.9l.14-1.07a10.88,10.88,0,0,1-.75,2.75l.4-1a10.87,10.87,0,0,1-1.32,2.26l.63-.81a11.36,11.36,0,0,1-2,2l.81-.63a11.37,11.37,0,0,1-2.26,1.33l.95-.41a11.26,11.26,0,0,1-2.74.76l1.06-.15c-.86.11-1.73.07-2.6.16a14.42,14.42,0,0,0-9,4.18A15.06,15.06,0,0,0,42.79,31a14.72,14.72,0,0,0-.67,3.36c-.1.87-.06,1.73-.16,2.6l.14-1.06a10.92,10.92,0,0,1-.75,2.74l.4-1a11.41,11.41,0,0,1-1.32,2.26l.62-.81a11.25,11.25,0,0,1-1.95,1.95l.81-.62a11.41,11.41,0,0,1-2.26,1.32l1-.4a10.92,10.92,0,0,1-2.74.75L36.92,42c-.87.1-1.73.06-2.6.16a14.72,14.72,0,0,0-3.36.67A14.47,14.47,0,0,0,21.77,52a14.85,14.85,0,0,0-.68,3.36c-.09.87-.05,1.74-.16,2.6l.15-1.06a11.26,11.26,0,0,1-.76,2.74l.41-.95a11.37,11.37,0,0,1-1.33,2.26l.63-.81a11.36,11.36,0,0,1-2,2l.81-.63a10.87,10.87,0,0,1-2.26,1.32l1-.4a11,11,0,0,1-2.75.75L15.9,63a11.67,11.67,0,0,1-2.77,0l1.06.14a10.81,10.81,0,0,1-2.74-.75l1,.4a10.87,10.87,0,0,1-2.26-1.32l.81.63a11.72,11.72,0,0,1-2-2l.63.81A10.87,10.87,0,0,1,8.3,58.67l.4.95A10.81,10.81,0,0,1,8,56.88l.14,1.06A42.49,42.49,0,0,1,8,52.77V19.33c0-1.6,0-3.2,0-4.81a10.7,10.7,0,0,1,.09-1.39L8,14.19a10.81,10.81,0,0,1,.75-2.74l-.4,1a10.87,10.87,0,0,1,1.32-2.26L9,11a11.36,11.36,0,0,1,2-2l-.81.63A10.87,10.87,0,0,1,12.4,8.3l-1,.4A10.81,10.81,0,0,1,14.19,8l-1.06.14A42.49,42.49,0,0,1,18.3,8H56.55a10.81,10.81,0,0,1,1.39.09L56.88,8a10.81,10.81,0,0,1,2.74.75l-.95-.4a10.87,10.87,0,0,1,2.26,1.32L60.12,9a11.72,11.72,0,0,1,2,2l-.63-.81a10.87,10.87,0,0,1,1.32,2.26l-.4-1a10.81,10.81,0,0,1,.75,2.74L63,13.13a10.66,10.66,0,0,1,.09,1.38,4,4,0,0,0,8,0A14.69,14.69,0,0,0,63.81,1.94,15.54,15.54,0,0,0,56,0H15.56A16.41,16.41,0,0,0,9.78.8,14.63,14.63,0,0,0,.31,11.56,25.12,25.12,0,0,0,0,16.05V56.26a15.1,15.1,0,0,0,3.44,9.65A14.44,14.44,0,0,0,17,70.82a14.28,14.28,0,0,0,6.76-3.14,14.51,14.51,0,0,0,4.3-6.08,12.56,12.56,0,0,0,.76-3.13c.15-1.1.12-2.2.25-3.3L29,56.24a10.88,10.88,0,0,1,.75-2.75l-.4,1a10.87,10.87,0,0,1,1.32-2.26L30,53A11,11,0,0,1,32,51l-.81.63a11.45,11.45,0,0,1,2.26-1.33l-1,.41A11.38,11.38,0,0,1,35.21,50l-1.06.15c.86-.11,1.73-.07,2.6-.16A14.44,14.44,0,0,0,50,36.75c.09-.87.05-1.74.16-2.6L50,35.21a11.38,11.38,0,0,1,.76-2.74l-.41,1a11.45,11.45,0,0,1,1.33-2.26L51,32A11,11,0,0,1,53,30l-.81.62a10.87,10.87,0,0,1,2.26-1.32l-1,.4A10.88,10.88,0,0,1,56.24,29l-1.07.14c.81-.1,1.62-.06,2.43-.14a14.14,14.14,0,0,0,8.74-3.75,14.5,14.5,0,0,0,4.73-10.71,4,4,0,0,0-8,0Z"/></g></g></svg>