<svg width="311" height="60" viewBox="0 0 311 60" fill="none" xmlns="http://www.w3.org/2000/svg">
<path fillRule="evenodd" clip-rule="evenodd" d="M37.9269 0.95425C39.1136 1.25798 39.3249 2.76401 38.321 3.45996L31.1788 8.41118C30.6567 8.77311 29.9616 8.77305 29.4396 8.41102L22.3017 3.46084C21.2978 2.76461 21.5096 1.25831 22.6964 0.954657C25.131 0.33175 27.6831 0 30.3132 0C32.9427 0 35.4943 0.331605 37.9269 0.95425ZM55.544 46.6255C58.7516 41.8673 60.6234 36.1526 60.6234 29.9999C60.6234 21.0865 56.6936 13.0804 50.4587 7.58619C49.9501 7.13792 49.1973 7.11146 48.6393 7.49803L43.553 11.0218C42.6681 11.6349 42.6951 12.9473 43.5386 13.6152C44.93 14.717 46.1766 15.9897 47.2489 17.4011C49.1288 19.8726 50.4687 22.7661 51.094 25.9169C51.3579 27.239 51.496 28.6014 51.496 29.9999C51.496 34.2196 50.2373 38.1499 48.0691 41.4413L38.3814 34.73L31.1831 29.7387C30.6612 29.3768 29.9662 29.3767 29.4442 29.7385L22.242 34.73L12.5542 41.4413C10.3861 38.1499 9.12741 34.2196 9.12741 29.9999C9.12741 28.6014 9.26545 27.239 9.52937 25.9169C10.1546 22.7661 11.4945 19.8726 13.3744 17.4011C14.4495 15.9898 15.6969 14.7173 17.0883 13.6156C17.932 12.9476 17.9588 11.6349 17.0736 11.0219L11.984 7.49764C11.426 7.11128 10.6734 7.13782 10.1648 7.586C3.9299 13.0802 0 21.0864 0 29.9999C0 36.1526 1.87177 41.8673 5.07935 46.6255C6.59017 48.8721 8.4012 50.902 10.4548 52.6637C10.9641 53.1006 11.7077 53.1219 12.2598 52.7393L22.242 45.8217L30.3137 40.2276L38.3814 45.8217L48.3635 52.7393C48.9156 53.1219 49.6593 53.1006 50.1686 52.6637C52.2222 50.902 54.0332 48.8721 55.544 46.6255ZM29.4444 52.0147C29.9664 51.6528 30.6614 51.6529 31.1834 52.0148L37.8722 56.6529C38.8837 57.3543 38.6593 58.8722 37.459 59.1599C35.1675 59.7092 32.7749 60 30.3139 60C27.8529 60 25.4602 59.7092 23.1671 59.1599C21.9664 58.8722 21.7418 57.3536 22.7537 56.6522L29.4444 52.0147ZM267.211 44.9731C276.449 44.9731 283.291 38.6362 283.291 29.9865C283.291 21.3369 276.449 15 267.211 15C257.932 15 251.13 21.377 251.13 29.9865C251.13 38.5961 257.918 44.9731 267.211 44.9731ZM267.211 39.2512C261.962 39.2512 258.012 35.4812 258.012 29.9732C258.012 24.4652 261.962 20.6952 267.211 20.6952C272.459 20.6952 276.409 24.4652 276.409 29.9732C276.409 35.4812 272.459 39.2512 267.211 39.2512ZM125.556 15.8021C125.703 15.3342 126.145 15.0134 126.64 15.0134H130.737C131.514 15.0134 132.063 15.7754 131.822 16.5107L121.767 44.2111C121.619 44.679 121.177 44.9999 120.682 44.9999H114.992C114.51 44.9999 114.095 44.7057 113.921 44.2646L107.735 28.1149L101.348 44.2646C101.187 44.7057 100.759 44.9865 100.29 44.9865H94.6402C94.1448 44.9865 93.703 44.6656 93.5557 44.1977L83.2461 16.4973C83.0051 15.7487 83.554 15 84.3306 15H88.9766C89.4854 15 89.9272 15.3209 90.0745 15.8021L97.8402 36.0828L104.481 19.1577C104.655 18.7299 105.084 18.4358 105.552 18.4358H110.279C110.761 18.4358 111.176 18.7299 111.35 19.1711L117.79 36.2566L125.556 15.8021ZM155.038 44.9865C154.57 44.9865 154.155 44.7058 153.981 44.2913L151.37 38.1951L137.271 40.6684L135.731 44.2913C135.544 44.7191 135.129 44.9865 134.673 44.9865H130.201C129.385 44.9865 128.822 44.1309 129.157 43.3822L141.261 15.6818C141.435 15.2674 141.85 15 142.305 15H147.527C147.982 15 148.384 15.2674 148.571 15.6818L160.715 43.3822C161.05 44.1443 160.501 44.9865 159.671 44.9865H155.038ZM144.876 21.8048L139.708 34.5855L149.361 33.0481L144.876 21.8048ZM188.108 44.9865C189.032 44.9865 189.568 43.9571 189.059 43.1951L184.386 36.3636C187.64 35.1069 189.742 30.3743 189.742 25.8823C189.742 19.1578 184.828 15 176.982 15H165.4C164.771 15 164.262 15.508 164.262 16.1364V43.8368C164.262 44.4651 164.771 44.9731 165.4 44.9731H169.912C170.796 44.9731 171.05 44.4651 171.05 43.8368L171.265 40.6015L178.428 38.3154L179.941 40.6015L182.632 44.4785C182.846 44.786 183.194 44.9865 183.583 44.9865H188.108ZM182.833 25.8823C182.833 29.1443 180.731 32.1256 176.714 33.1416L171.024 34.5855V20.6551H176.567C180.731 20.6551 182.833 22.5802 182.833 25.8823ZM223.926 15H235.507C243.367 15 247.705 19.1578 247.692 25.8823C247.692 32.5668 243.045 35.6283 235.856 38.3154L229.576 40.6015V43.8368C229.576 44.4651 229.067 44.9731 228.438 44.9731H223.926C223.297 44.9731 222.788 44.4651 222.788 43.8368V16.1364C222.788 15.508 223.297 15 223.926 15ZM229.603 34.5855L234.972 33.0481C237.917 32.139 241.399 29.131 241.399 25.8823C241.399 22.5802 239.297 20.6551 235.146 20.6551H229.603V34.5855ZM310.526 36.0026C310.526 40.8421 306.456 44.9865 298.061 44.9865C293.803 44.9865 289.505 43.8502 286.801 42.1256C286.359 41.8448 286.225 41.2967 286.439 40.8421L287.818 37.8341C288.126 37.1791 288.97 36.9652 289.599 37.3261C291.982 38.6898 295.102 39.5855 298.101 39.5855C302.131 39.5855 303.765 38.2619 303.765 36.4839C303.765 34.2371 300.823 33.5626 297.381 32.7734C292.528 31.6608 286.68 30.3202 286.68 24.024C286.68 19.1043 290.71 15 299.065 15C302.413 15 305.827 15.7086 308.464 17.0989C308.933 17.353 309.12 17.9145 308.92 18.4091L307.661 21.4706C307.407 22.0989 306.63 22.3529 306.001 22.0588C303.644 20.9358 301.261 20.3877 299.025 20.3877C294.995 20.3877 293.442 21.885 293.442 23.7032C293.442 25.9215 296.382 26.5846 299.822 27.3608C304.676 28.4556 310.526 29.7753 310.526 36.0026ZM219.212 16.7246C219.667 15.9626 219.105 15 218.221 15H214.204C213.802 15 213.428 15.2139 213.213 15.5615L205.421 31.3368L198.177 15.5615C197.976 15.2139 197.602 15 197.187 15H192.621C191.737 15 191.188 15.9626 191.63 16.7246L201.993 38.3154V43.8368C201.993 44.4651 202.502 44.9731 203.131 44.9731H207.643C208.273 44.9731 208.781 44.4651 208.781 43.8368V38.3154L219.212 16.7246Z" fill="white"/>
</svg>
