<svg width="298" height="61" viewBox="0 0 298 61" fill="none" xmlns="http://www.w3.org/2000/svg">
    <path d="M88.7403 12.4756L80.6539 25.2211L71.777 12.4756H64.1816L77.4477 31.2197V45.8744H83.7297V31.1161L96.0291 12.4756H88.7403Z" fill="white"/>
    <path d="M110.039 29.2902C110.6 30.4131 110.885 31.7001 110.885 33.1138C110.885 34.5601 110.6 35.8707 110.039 37.0091C109.483 38.133 108.698 39.0306 107.706 39.6779C106.723 40.3198 105.552 40.6451 104.224 40.6451C102.958 40.6451 101.817 40.3198 100.834 39.6775C99.8411 39.0297 99.057 38.1321 98.5024 37.0091C97.9404 35.8721 97.6556 34.5615 97.6556 33.1138C97.6556 31.6678 97.9404 30.3663 98.501 29.2447C99.0538 28.1395 99.837 27.2569 100.828 26.6232C101.814 25.994 102.956 25.6751 104.224 25.6751C105.551 25.6751 106.722 26.0004 107.706 26.6427C108.699 27.2905 109.484 28.1813 110.039 29.2902ZM110.702 22.6406C110.105 22.1077 109.422 21.618 108.658 21.1765C107.293 20.3874 105.694 19.9872 103.904 19.9872C101.532 19.9872 99.3827 20.5505 97.5161 21.6616C95.6477 22.7723 94.1627 24.3391 93.1002 26.317C92.0454 28.2849 91.5103 30.5717 91.5103 33.1138C91.5103 35.6549 92.0286 37.9467 93.0507 39.9246C94.0764 41.9148 95.4874 43.4952 97.2445 44.6231C99.0102 45.7574 100.989 46.3325 103.125 46.3325C105.134 46.3325 106.932 45.8519 108.468 44.9048C109.328 44.3746 110.074 43.8159 110.702 43.234V45.8742H116.802V20.4914H110.702V22.6406Z" fill="white"/>
    <path d="M145.21 20.4914H136.881L126.969 30.32V10.6438H120.916V45.8741H126.969V37.6155L128.862 35.8221L137.49 45.8741H145.3L133.179 31.7891L145.21 20.4914Z" fill="white"/>
    <path d="M161.956 35.6333C161.956 37.309 161.447 38.5678 160.398 39.4818C159.324 40.4185 158.074 40.8741 156.577 40.8741C155.418 40.8741 154.466 40.6025 153.748 40.0678C153.008 39.5159 152.483 38.799 152.143 37.876C151.791 36.9193 151.612 35.8563 151.612 34.717V20.4911H145.558V35.9998C145.558 39.1811 146.403 41.7209 148.068 43.5493C149.75 45.3959 151.966 46.3326 154.654 46.3326C156.668 46.3326 158.43 45.8579 159.892 44.9212C160.68 44.417 161.37 43.8637 161.956 43.2686V45.8743H168.01V20.4911H161.956V35.6333Z" fill="white"/>
    <path d="M186.515 20.9034H180.835V18.4568C180.835 17.8471 180.995 17.357 181.324 16.9572C181.688 16.5152 182.49 16.4221 183.098 16.4221C183.473 16.4221 183.861 16.527 184.25 16.7333C184.678 16.9613 185.026 17.2071 185.283 17.4642L185.972 18.1506L188.139 13.2572L187.866 12.9374C187.444 12.4463 186.808 11.9643 185.923 11.4628C185.016 10.9495 183.88 10.6892 182.548 10.6892C180.268 10.6892 178.375 11.4256 176.923 12.8774C175.471 14.3293 174.735 16.2063 174.735 18.4568V20.9034H170.888V26.5909H174.735V45.8741H180.835V26.5909H186.515V20.9034Z" fill="white"/>
    <path d="M205.036 29.2902C205.597 30.4131 205.881 31.7001 205.881 33.1138C205.881 34.5601 205.597 35.8707 205.035 37.0091C204.479 38.133 203.695 39.0306 202.703 39.6779C201.719 40.3198 200.548 40.6451 199.22 40.6451C197.954 40.6451 196.813 40.3198 195.83 39.6775C194.838 39.0297 194.053 38.1321 193.499 37.0091C192.937 35.8721 192.652 34.5615 192.652 33.1138C192.652 31.6678 192.937 30.3663 193.498 29.2447C194.05 28.1395 194.833 27.2569 195.824 26.6232C196.811 25.994 197.952 25.6751 199.22 25.6751C200.547 25.6751 201.718 26.0004 202.703 26.6427C203.696 27.2905 204.481 28.1813 205.036 29.2902ZM205.698 22.6406C205.101 22.1077 204.418 21.618 203.655 21.1765C202.29 20.3874 200.691 19.9872 198.9 19.9872C196.528 19.9872 194.379 20.5505 192.513 21.6616C190.644 22.7723 189.159 24.3391 188.097 26.317C187.042 28.2849 186.507 30.5717 186.507 33.1138C186.507 35.6549 187.025 37.9467 188.047 39.9246C189.073 41.9148 190.484 43.4952 192.241 44.6231C194.007 45.7574 195.985 46.3325 198.122 46.3325C200.131 46.3325 201.928 45.8519 203.465 44.9048C204.325 44.3746 205.071 43.8159 205.698 43.234V45.8742H211.798V20.4914H205.698V22.6406Z" fill="white"/>
    <path d="M228.673 19.9874C227.044 19.9874 225.474 20.5053 224.008 21.5274C223.244 22.0598 222.576 22.6744 222.011 23.3658V20.4912H215.912V45.8744H222.011V31.9233C222.011 30.7663 222.281 29.8019 222.837 28.9747C223.398 28.1397 224.111 27.4888 224.955 27.0395C226.222 26.3649 227.6 26.2232 228.767 26.503C229.159 26.5984 229.49 26.712 229.748 26.8414L230.499 27.2158L232.057 20.7529L231.581 20.5157C230.868 20.1601 229.916 19.9874 228.673 19.9874Z" fill="white"/>
    <path d="M267.007 21.5706C265.731 20.5807 263.96 20.0792 261.742 20.0792C260.397 20.0792 259.115 20.3627 257.93 20.9219C256.771 21.4697 255.742 22.1647 254.872 22.9865C254.383 23.4481 253.957 23.9128 253.595 24.377C253.033 23.2427 252.261 22.3001 251.29 21.5651C249.984 20.5793 248.246 20.0792 246.123 20.0792C244.35 20.0792 242.724 20.5553 241.292 21.4938C240.513 22.0039 239.825 22.5581 239.234 23.1514V20.4917H233.135V45.8744H239.234V30.7323C239.234 29.8114 239.456 29.0051 239.912 28.2665C240.369 27.5283 241.013 26.9196 241.827 26.4585C242.638 25.9997 243.574 25.7666 244.612 25.7666C246.066 25.7666 247.068 26.2086 247.674 27.1176C248.329 28.1007 248.662 29.394 248.662 30.9612V45.8744H254.762V30.824C254.762 29.4112 255.257 28.2419 256.277 27.2489C257.302 26.2513 258.58 25.7666 260.185 25.7666C261.812 25.7666 262.871 26.2009 263.417 27.0954C264.021 28.0839 264.327 29.4153 264.327 31.053V45.8744H270.426V30.7786C270.426 28.8579 270.177 27.0881 269.686 25.5172C269.172 23.8796 268.271 22.5518 267.007 21.5706Z" fill="white"/>
    <path d="M292.084 33.114C292.084 34.5604 291.799 35.8705 291.237 37.0089C290.682 38.1332 289.898 39.0304 288.905 39.6777C287.922 40.3196 286.75 40.6449 285.423 40.6449C284.157 40.6449 283.015 40.3196 282.032 39.6773C281.04 39.0295 280.256 38.1323 279.701 37.0089C279.139 35.8719 278.854 34.5618 278.854 33.114C278.854 31.6676 279.139 30.3661 279.699 29.2445C280.253 28.1393 281.036 27.2571 282.026 26.6234C283.012 25.9938 284.155 25.6749 285.423 25.6749C286.75 25.6749 287.921 26.0006 288.905 26.6429C289.898 27.2903 290.683 28.1811 291.239 29.2904C291.799 30.4134 292.084 31.7003 292.084 33.114ZM291.9 20.4912V22.6404C291.303 22.108 290.62 21.6183 289.857 21.1763C288.492 20.3872 286.893 19.9874 285.102 19.9874C282.731 19.9874 280.581 20.5507 278.714 21.6619C276.846 22.7726 275.361 24.3389 274.299 26.3172C273.244 28.2847 272.709 30.5715 272.709 33.114C272.709 35.6552 273.227 37.947 274.249 39.9244C275.275 41.9145 276.686 43.4954 278.443 44.6234C280.209 45.7572 282.187 46.3328 284.324 46.3328C286.333 46.3328 288.13 45.8517 289.667 44.9045C290.526 44.3744 291.273 43.8161 291.9 43.2337V45.8744H298V20.4912H291.9Z" fill="white"/>
    <path d="M30.0657 53.9508L24.3223 46.1092L30.0657 38.2685L35.809 46.1097L30.0657 53.9508ZM32.9871 33.213C32.3084 32.2854 31.2159 31.7312 30.0657 31.7312C28.9159 31.7312 27.8238 32.2854 27.1456 33.2121L19.265 43.9705C18.3283 45.2497 18.3283 46.9696 19.2654 48.2493L27.1447 59.0064C27.8238 59.9335 28.9159 60.4886 30.0657 60.4886C31.2159 60.4886 32.3084 59.9335 32.9866 59.0073L40.8664 48.2484C41.8026 46.9696 41.8026 45.2497 40.8654 43.9696L32.9871 33.213Z" fill="white"/>
    <path d="M51.5885 22.057H29.9321C28.1677 22.057 26.7327 20.6215 26.7327 18.8576V8.54345C26.7327 6.77907 28.1677 5.34358 29.9321 5.34358C31.6969 5.34358 33.1329 6.77907 33.1329 8.54345V15.5442C33.1329 17.0196 34.329 18.2157 35.8044 18.2157C37.2799 18.2157 38.4764 17.0196 38.4764 15.5442V8.54345C38.4764 3.83223 34.6438 1.52588e-05 29.9321 1.52588e-05C25.2213 1.52588e-05 21.3887 3.83223 21.3887 8.54345V18.8576C21.3887 23.5684 25.2213 27.4011 29.9321 27.4011H51.5885C53.3528 27.4011 54.7879 28.8365 54.7879 30.6005V30.8676C54.7879 32.6315 53.3528 34.067 51.5885 34.067H42.1092C40.6338 34.067 39.4372 35.2631 39.4372 36.739C39.4372 38.2145 40.6338 39.411 42.1092 39.411H51.5885C56.2992 39.411 60.1319 35.5783 60.1319 30.8676V30.6005C60.1319 25.8897 56.2992 22.057 51.5885 22.057Z" fill="white"/>
    <path d="M20.6947 36.7391C20.6947 35.2632 19.4981 34.0671 18.0227 34.0671H8.67699C6.83947 34.0671 5.34402 32.5721 5.34402 30.7341C5.34402 28.8957 6.83947 27.4007 8.67699 27.4007H16.018C17.4934 27.4007 18.69 26.2046 18.69 24.7292C18.69 23.2532 17.4934 22.0572 16.018 22.0572H8.67699C3.89263 22.0572 0 25.9493 0 30.7341C0 35.5185 3.89263 39.4111 8.67699 39.4111H18.0227C19.4981 39.4111 20.6947 38.2146 20.6947 36.7391Z" fill="white"/>
</svg>
    