<svg xmlns="http://www.w3.org/2000/svg" viewBox="0 0 113.92 27.78"><defs><style>.cls-1{fill:#fff;}</style></defs><g id="Layer_2" data-name="Layer 2"><g id="Layer_1-2" data-name="Layer 1"><path class="cls-1" d="M37.08,10.9V7.78h13.1L42,19H49.4v3.12H36L44.34,10.9Z"/><path class="cls-1" d="M55.82,18.88a2.39,2.39,0,0,0,2,.85,3.31,3.31,0,0,0,1.65-.41,2.87,2.87,0,0,0,1.12-1.12A3.38,3.38,0,0,0,61,16.51V7.78H64.4V22.13H61V19.91a4.89,4.89,0,0,1-1.76,1.89,4.94,4.94,0,0,1-2.58.64A4.6,4.6,0,0,1,53,20.94a6,6,0,0,1-1.3-4.05V7.78h3.47v8.73A3.75,3.75,0,0,0,55.82,18.88Z"/><path class="cls-1" d="M71.26,22.13H67.92V7.78h3.34Zm3.41-11.32a2.48,2.48,0,0,0-1-.19,2.13,2.13,0,0,0-1.38.44,2.46,2.46,0,0,0-.76,1.2,6,6,0,0,0-.23,1.79l-1.13-.65a7,7,0,0,1,.64-3,6,6,0,0,1,1.66-2.13,3.34,3.34,0,0,1,2.1-.79A4.2,4.2,0,0,1,76,7.69a2.86,2.86,0,0,1,1.18.84l-1.65,2.84A3.4,3.4,0,0,0,74.67,10.81Z"/><path class="cls-1" d="M81.17,7.78,84.92,17l3.74-9.26h3.68L84.92,23.44,77.46,7.78Z"/><path class="cls-1" d="M94.19.61a2.21,2.21,0,0,1,3,0,1.92,1.92,0,0,1,.63,1.47,2,2,0,0,1-.63,1.45,2.19,2.19,0,0,1-3,0,2,2,0,0,1-.64-1.45A1.93,1.93,0,0,1,94.19.61Zm3.17,7.17V22.13H94V7.78Z"/><path class="cls-1" d="M109.8,11a2.42,2.42,0,0,0-2-.81,3.47,3.47,0,0,0-1.68.39A2.69,2.69,0,0,0,105,11.7a3.55,3.55,0,0,0-.39,1.7v8.73h-3.4V7.78h3.4V10a4.7,4.7,0,0,1,1.77-1.91,5,5,0,0,1,2.54-.62A4.62,4.62,0,0,1,112.64,9a6,6,0,0,1,1.28,4v9.14h-3.46V13.4A3.78,3.78,0,0,0,109.8,11Z"/><path class="cls-1" d="M11.26,27.78A7.53,7.53,0,0,1,4.5,16.94L10.72,4.22A7.58,7.58,0,0,1,17.48,0a7.53,7.53,0,0,1,6.77,10.84L18,23.56A7.59,7.59,0,0,1,11.26,27.78ZM17.48,3a4.57,4.57,0,0,0-4.07,2.54L7.19,18.26a4.53,4.53,0,0,0,4.07,6.52,4.56,4.56,0,0,0,4.07-2.54L21.55,9.52A4.52,4.52,0,0,0,17.48,3Z"/><rect class="cls-1" width="16.95" height="3"/><rect class="cls-1" x="10.94" y="24.78" width="17.77" height="3"/></g></g></svg>