<svg
    xmlns="http://www.w3.org/2000/svg"
    viewBox="0 0 27.78 27.78"
    >
    <defs>
        <style>.cls-1{fill:#fff;}</style>
    </defs>
    <g id="Layer_2" data-name="Layer 2">
        <g id="Layer_1-2" data-name="Layer 1">
            <path class="cls-1" d="M11.26,27.78A7.53,7.53,0,0,1,4.5,16.94L10.72,4.22A7.58,7.58,0,0,1,17.48,0a7.53,7.53,0,0,1,6.77,10.84L18,23.56A7.59,7.59,0,0,1,11.26,27.78ZM17.48,3a4.57,4.57,0,0,0-4.07,2.54L7.19,18.26a4.53,4.53,0,0,0,4.07,6.52,4.56,4.56,0,0,0,4.07-2.54L21.55,9.52A4.52,4.52,0,0,0,17.48,3Z" />
            <rect class="cls-1" width="16.95" height="3" />
            <rect class="cls-1" x="10.94" y="24.78" width="17.77" height="3" />
        </g>
    </g>
</svg>